<svg xmlns="http://www.w3.org/2000/svg" version="1.1" xmlns:xlink="http://www.w3.org/1999/xlink" viewBox="0 0 200 200"><rect width="200" height="200" fill="url('#gradient')"></rect><defs><linearGradient id="gradient" gradientTransform="rotate(45 0.5 0.5)"><stop offset="0%" stop-color="#2f2445"></stop><stop offset="100%" stop-color="#666f8d"></stop></linearGradient></defs><g><g fill="#aec1b0" transform="matrix(4.514327700220426,0,0,4.514327700220426,5.153230769681542,133.40836739102153)" stroke="#41375b" stroke-width="0.2"><path d="M12.96-14.22L12.96 0L9.55 0L9.55-5.94L4.50-5.94L4.50 0L1.07 0L1.07-14.22L4.50-14.22L4.50-8.57L9.55-8.57L9.55-14.22L12.96-14.22ZM14.57-4.82L14.56-5.38Q14.56-6.96 15.18-8.20Q15.79-9.43 16.94-10.10Q18.10-10.76 19.65-10.76L19.65-10.76Q22.02-10.76 23.39-9.29Q24.76-7.82 24.76-5.29L24.76-5.29L24.76-5.18Q24.76-2.71 23.38-1.25Q22.01 0.20 19.67 0.20L19.67 0.20Q17.41 0.20 16.04-1.16Q14.68-2.51 14.57-4.82L14.57-4.82ZM17.86-5.77L17.85-5.18Q17.85-3.71 18.31-3.03Q18.77-2.34 19.67-2.34L19.67-2.34Q21.43-2.34 21.46-5.05L21.46-5.05L21.46-5.38Q21.46-8.22 19.65-8.22L19.65-8.22Q18.00-8.22 17.86-5.77L17.86-5.77ZM29.68-15L29.68 0L26.38 0L26.38-15L29.68-15ZM40.95 0L37.66 0Q37.48-0.32 37.34-0.95L37.34-0.95Q36.44 0.20 34.80 0.20L34.80 0.20Q33.31 0.20 32.27-0.71Q31.22-1.61 31.22-2.98L31.22-2.98Q31.22-4.70 32.49-5.58Q33.76-6.46 36.18-6.46L36.18-6.46L37.20-6.46L37.20-7.01Q37.20-8.47 35.94-8.47L35.94-8.47Q34.77-8.47 34.77-7.31L34.77-7.31L31.47-7.31Q31.47-8.85 32.78-9.80Q34.08-10.76 36.10-10.76Q38.13-10.76 39.30-9.78Q40.47-8.79 40.50-7.07L40.50-7.07L40.50-2.39Q40.52-0.94 40.95-0.17L40.95-0.17L40.95 0ZM35.60-2.15L35.60-2.15Q36.21-2.15 36.62-2.41Q37.02-2.68 37.20-3.01L37.20-3.01L37.20-4.70L36.24-4.70Q34.52-4.70 34.52-3.15L34.52-3.15Q34.52-2.71 34.82-2.43Q35.13-2.15 35.60-2.15Z"></path></g></g></svg>